<?xml version="1.0" encoding="utf-8"?>
<!-- Generator: Adobe Illustrator 26.0.1, SVG Export Plug-In . SVG Version: 6.00 Build 0)  -->
<svg version="1.1" id="Layer_1" xmlns="http://www.w3.org/2000/svg" xmlns:xlink="http://www.w3.org/1999/xlink" x="0px" y="0px"
	 viewBox="0 0 500 500" style="enable-background:new 0 0 500 500;" xml:space="preserve">
<style type="text/css">
	.st0{fill:#FFFFFF;}
</style>
<g>
	<path class="st0" d="M144.1,20.9c3,2.6,6.2,5,9,7.8c70.3,70.2,140.5,140.4,210.7,210.6c8,8,8,12.4-0.1,20.5
		C292.9,330.7,222,401.6,151.1,472.4c-1.5,1.5-3,2.9-4.7,4.1c-4.1,2.7-8.9,2.2-12.3-1.1c-3.3-3.2-3.9-8.6-1.1-12.6
		c1.2-1.7,2.7-3.2,4.1-4.7c68.1-68.1,136.2-136.2,204.4-204.3c1.3-1.3,2.8-2.2,4.2-3.3c0.3-0.7,0.5-1.4,0.8-2.1
		c-1.6-0.9-3.4-1.5-4.6-2.7c-68.4-68.3-136.7-136.6-205-205c-2-2-4.1-4.5-5.1-7.1c-1.9-5.3,0.5-9.1,6.9-12.7
		C140.6,20.9,142.4,20.9,144.1,20.9z"/>
</g>
</svg>
