<?xml version="1.0" encoding="utf-8"?>
<!-- Generator: Adobe Illustrator 26.0.1, SVG Export Plug-In . SVG Version: 6.00 Build 0)  -->
<svg version="1.1" id="Layer_1" xmlns="http://www.w3.org/2000/svg" xmlns:xlink="http://www.w3.org/1999/xlink" x="0px" y="0px"
	 viewBox="0 0 500 500" style="enable-background:new 0 0 500 500;" xml:space="preserve">
<style type="text/css">
	.st0{fill:#FFFFFF;}
</style>
<g>
	<path class="st0" d="M250.4,305.6c1.7-1.9,2.8-3.5,4.2-4.9c46.2-46.2,92.4-92.4,138.8-138.4c2.8-2.8,6.8-5.1,10.7-6.1
		c6-1.6,12.5,2.1,15.6,7.5c3.1,5.5,2.7,12.4-1.3,17.4c-1.1,1.4-2.4,2.6-3.7,3.9C364.4,235.3,314,285.6,263.6,335.9
		c-9.7,9.7-17.6,9.7-27.2,0.1c-50.6-50.5-101.3-101-151.8-151.7c-2.8-2.8-5.2-6.8-6.2-10.6c-1.7-6,2-12.5,7.4-15.7
		c5.5-3.2,12.4-2.7,17.4,1.2c1.5,1.2,2.9,2.6,4.2,4c46.1,46,92.3,92.1,138.4,138.1C247.2,302.6,248.5,303.8,250.4,305.6z"/>
</g>
</svg>
